<?xml version="1.0" encoding="UTF-8"?>
<svg width="642px" height="125px" viewBox="0 0 642 125" version="1.1" xmlns="http://www.w3.org/2000/svg" xmlns:xlink="http://www.w3.org/1999/xlink">
    <title>Logo/EN</title>
    <g id="Logo/EN" stroke="none" stroke-width="1" fill="none" fill-rule="evenodd">
        <g id="编组" transform="translate(32.000000, 32.000000)" fill="#FFFFFF">
            <path d="M279.60028,18.51 L279.60028,39.43 C279.60028,44.19 279.12028,49.43 276.74028,52.27 C273.18028,56.55 267.23028,57.9801526 262.24028,57.9801526 C257.938783,57.995987 253.726286,56.7551773 250.12028,54.41 C247.26028,52.51 244.65028,49.66 244.65028,42.05 L244.65028,19.96 C244.65028,15.44 246.07028,10.68 250.12028,7.83 C253.73028,5.43 257.49028,4.96 261.73028,4.96 C265.73028,4.96 269.81028,5.67 272.66028,7.34 C276.906759,9.4436862 279.595354,13.7710069 279.60028,18.51 L279.60028,18.51 Z M268.66028,20.17 C268.66028,18.75 268.66028,16.85 267.00028,15.42 C266.05028,14.42 263.91028,13.99 262.00028,13.99 C260.444907,13.9140959 258.917641,14.4243741 257.72028,15.42 C255.82028,17.08 255.58028,18.99 255.58028,22.31 L255.58028,40.15 C255.58028,44.42 255.58028,45.61 257.01028,46.8 C258.306249,47.9767493 260.023177,48.5791169 261.77028,48.47 C262.96028,48.47 265.33028,48.47 266.77028,47.28 C268.20028,45.85 268.67028,45.02 268.67028,41.7 L268.66028,20.17 Z M233.00028,25.88 C238.23028,29.21 238.00028,33.01 238.00028,35.63 C238.212095,38.1607941 238.292203,40.7008883 238.24028,43.24 C238.24028,48.47 236.34028,53.24 231.58028,55.84 C227.73028,57.96 224.73028,57.96 220.40028,57.96 C216.40028,57.96 212.31028,57.72 208.04028,54.39 C204.71028,51.77 203.28028,46.31 203.28028,43.22 L203.28028,17.32 C203.28028,11.38 208.51028,8.05 211.60028,6.62 C215.88028,4.72 220.16028,4.96 222.54028,4.96 C226.54028,4.96 230.86028,5.67 233.71028,7.1 C234.41469,7.35052108 234.889205,8.01244941 234.90028,8.76 L234.42028,14.23 C234.34709,14.7122639 234.07483,15.141661 233.669847,15.4135509 C233.264864,15.6854408 232.764352,15.7748535 232.29028,15.66 C229.295686,14.6508468 226.168816,14.0881449 223.01028,13.99 C219.68028,13.99 213.27028,14.94 213.27028,19.46 L213.27028,24.96 C216.130504,24.1244652 219.082703,23.6441871 222.06028,23.53 C225.63028,23.5 230.86028,24.45 233.00028,25.88 L233.00028,25.88 Z M227.06028,46.56 C228.24028,44.9 228.48028,43.47 228.48028,40.62 C228.48028,37.77 228.24028,36.34 226.82028,34.68 C225.40028,33.02 223.01028,33.01 220.82028,33.01 C218.284313,33.1273888 215.789148,33.6927789 213.45028,34.68 L213.45028,40.15 C213.45028,43 213.22028,44.9 214.64028,46.56 C216.07028,48.47 218.21028,48.7 220.59028,48.7 C222.78028,48.7 225.87028,48.23 227.06028,46.56 L227.06028,46.56 Z M196.62028,38.48 C196.636257,39.5944621 196.559324,40.7083172 196.39028,41.81 L196.39028,45.38 C196.302406,48.9042571 194.644705,52.2049887 191.87028,54.38 C188.54028,56.76 182.36028,57.9501775 177.37028,57.9501775 C172.511311,57.9677797 167.740916,56.6497808 163.58028,54.14 C163.10665,53.7203358 162.843042,53.1125707 162.86028,52.48 L163.34028,47.01 C163.409428,46.4732773 163.720308,45.9976775 164.184176,45.7189671 C164.648044,45.4402567 165.213925,45.389063 165.72028,45.58 C169.077203,47.1462434 172.709561,48.036494 176.41028,48.2 C181.41028,48.2 183.31028,47.49 184.97028,46.3 C186.64028,44.87 186.40028,43.68 186.40028,42.3 L186.40028,39.68 C186.40028,38.02 185.45028,36.83 183.07028,36.11 C181.99933,35.7174337 180.878215,35.4783971 179.74028,35.4 C176.89028,35.16 173.32028,35.16 170.74028,35.16 C170.295834,35.1709878 169.866186,34.9999589 169.550877,34.686538 C169.235568,34.373117 169.061962,33.9445034 169.07028,33.5 L169.07028,28.03 C169.059292,27.5855545 169.230321,27.155906 169.543742,26.840597 C169.857163,26.525288 170.285777,26.3516817 170.73028,26.36 C173.351146,26.3663511 175.969764,26.2060276 178.57028,25.88 C180.95028,25.64 182.85028,25.41 183.80028,24.45 C184.80028,23.74 185.47028,23.27 185.47028,20.89 L185.47028,18.51 C185.3843,16.9034223 184.344138,15.504719 182.83028,14.96 C181.41028,14.25 178.32028,14.25 176.41028,14.25 C172.631167,14.5702569 168.934601,15.5341372 165.48028,17.1 C164.979261,17.3597473 164.379531,17.3418534 163.894889,17.0526975 C163.410247,16.7635415 163.109658,16.2442701 163.10028,15.68 L162.63028,10.21 C162.446322,9.55573104 162.741482,8.86148045 163.34028,8.54 C168.076238,6.2456419 173.289026,5.10780782 178.55028,5.22 C182.36028,5.22 186.40028,5.69 189.49028,7.36 C193.149143,9.4366814 195.349814,13.3755355 195.20028,17.58 L195.20028,20.19 C195.20028,23.05 194.48028,25.66 192.82028,27.09 C191.647028,28.1836394 190.293836,29.0665967 188.82028,29.7 C189.542033,29.8198306 190.25649,29.9800827 190.96028,30.18 C195.43028,31.59 196.62028,36.1 196.62028,38.48 L196.62028,38.48 Z M151.21028,18.75 C154.54028,20.41 156.21028,23.5 156.44028,28.5 L156.21028,51.56 C156.215674,52.0611928 155.936745,52.5222009 155.49028,52.75 C153.83028,54.17 148.60028,57.75 139.80028,57.75 C133.62028,57.75 130.05028,56.8 126.96028,55.37 C124.141918,53.9739807 122.31755,51.1433308 122.21028,48 L122.21028,43 C122.21028,38.24 124.59028,36.1 127.68028,34.44 C131.018014,32.8199007 134.661673,31.9268804 138.37028,31.82 C141.069319,31.7366314 143.77093,31.8167781 146.46028,32.06 L146.46028,28.5 C146.622316,27.2771077 145.934925,26.0998998 144.79028,25.64 C143.60028,24.93 141.94028,24.64 138.85028,24.64 C134.633811,24.971676 130.478692,25.8524535 126.49028,27.26 C125.987174,27.5145257 125.388595,27.4927657 124.905299,27.2023815 C124.422002,26.9119973 124.121758,26.3937083 124.11028,25.83 L123.87028,20.12 C123.788929,19.4039905 124.19929,18.7227918 124.87028,18.46 C128.20028,16.8 133.87028,16.0799156 139.87028,16.0799156 C143.807198,16.0697992 147.691485,16.9843535 151.21028,18.75 L151.21028,18.75 Z M146.21028,41.81 L146.21028,39.96 C144.392144,39.7880489 142.566489,39.707947 140.74028,39.72 C138.84028,39.96 135.99028,39.96 134.09028,40.67 C132.347701,41.373022 131.21305,43.0710314 131.23028,44.95 C131.23028,46.14 130.76028,46.38 131.71028,47.33 C132.90028,48.33 135.51028,48.75 137.65028,48.75 C139.79028,48.75 142.65028,48.52 144.55028,47.33 C146.46028,45.85 146.22028,45.14 146.22028,41.81 L146.21028,41.81 Z M112.45028,47.28 L115.54028,47.28 C116.514799,47.2385536 117.35055,47.968736 117.44028,48.94 L117.68028,54.65 C117.576057,55.4384351 117.014597,56.0902 116.25028,56.31 C114.127256,56.6474334 111.979877,56.8079851 109.83028,56.79 C106.27028,56.55 102.23028,56.31 99.6102799,54.17 C97.2302799,51.8 97.4702799,48.47 97.4702799,46.09 L97.4702799,8.53 C97.456255,8.08293634 97.6276931,7.6499677 97.9439704,7.33369043 C98.2602476,7.01741317 98.6932163,6.84597501 99.1402799,6.86 L106.73028,6.86 C107.176499,6.84890863 107.607745,7.02129047 107.923367,7.33691264 C108.238989,7.65253482 108.411371,8.08378066 108.40028,8.53 L108.40028,18.75 L114.58028,18.75 C115.023847,18.7389056 115.452552,18.9102328 115.766299,19.2239805 C116.080047,19.5377282 116.251374,19.9664325 116.24028,20.41 L116.24028,26.12 C116.251374,26.5635675 116.080047,26.9922718 115.766299,27.3060195 C115.452552,27.6197672 115.023847,27.7910944 114.58028,27.78 L108.40028,27.78 L108.40028,44.19 C108.271817,45.1203747 108.528216,46.0629103 109.11028,46.8 C109.37028,47.28 110.80028,47.28 112.46028,47.28 L112.45028,47.28 Z M80.3502799,32.28 C85.3502799,32.99 87.4902799,34.18 89.6302799,36.28 C91.5302799,38.18 91.5302799,41.51 91.5302799,44.36 C91.5302799,48.17 91.2902799,51.26 88.4402799,53.64 C86.0602799,55.78 81.7802799,56.97 76.0702799,56.97 C70.8402799,56.97 64.4202799,55.78 61.3302799,54.11 C60.719759,53.7864063 60.3500069,53.1403131 60.3802799,52.45 L60.6202799,46.98 C60.6931257,46.4955152 60.9668472,46.0641906 61.3742011,45.7919868 C61.7815549,45.5197831 62.28479,45.4319264 62.7602799,45.55 C65.9929154,46.67189 69.3516203,47.3906529 72.7602799,47.69 C76.3202799,47.93 79.4102799,47.69 80.8402799,46.5 C81.7902799,45.79 81.7902799,43.18 80.6002799,42.23 C79.6502799,41.51 78.4602799,41.04 73.4702799,40.32 C67.7602799,39.61 63.9602799,38.42 62.3002799,36.76 C60.6402799,35.1 59.9202799,32.76 59.9202799,29.62 C59.8682938,28.2820159 59.9486846,26.9421692 60.1602799,25.62 C60.3902799,22.77 61.8202799,19.68 66.3402799,18.02 C69.1520395,16.9862416 72.1358358,16.5008231 75.1302799,16.59 C81.3102799,16.59 84.1302799,17.3 87.9702799,18.73 C88.6746901,18.9805211 89.149205,19.6424494 89.1602799,20.39 L88.6802799,25.62 C88.6099985,26.1037158 88.3383717,26.5351267 87.9325512,26.8075789 C87.5267308,27.0800311 87.0245941,27.1680953 86.5502799,27.05 C83.8909048,26.3258937 81.1890063,25.7681471 78.4602799,25.38 C75.8502799,25.15 70.8502799,24.91 69.9002799,26.1 C68.9502799,26.81 68.9502799,29.43 70.1402799,30.1 C71.3302799,30.77 75.6102799,31.82 80.3602799,32.3 L80.3502799,32.28 Z M49.9302799,19.96 C52.5502799,22.1 53.2602799,26.38 53.2602799,31.37 L53.2602799,54.19 C53.2067808,55.0854173 52.4953598,55.8011239 51.6002799,55.8602799 L43.9902799,55.8602799 C43.544898,55.8682246 43.1153316,55.694921 42.8003453,55.3799347 C42.485359,55.0649484 42.3120554,54.635382 42.3202799,54.19 L42.3202799,28.73 C42.3202799,26.12 39.2302799,25.17 36.3802799,25.17 C32.8102799,25.17 29.7202799,26.12 29.7202799,28.73 L29.7202799,54.17 C29.6667808,55.0654173 28.9553598,55.7811239 28.0602799,55.84 L20.7302799,55.84 C20.284898,55.8482246 19.8553316,55.674921 19.5403453,55.3599347 C19.225359,55.0449484 19.0520554,54.615382 19.06,54.17 L19.06,22.55 C19.1102856,22.0463392 19.274444,21.5607041 19.5402799,21.13 C20.7302799,20.13 23.3402799,18.27 29.0502799,16.85 C33.0043827,15.7688817 37.1531124,15.604711 41.1802799,16.37 C44.3768603,16.7186466 47.4099608,17.9630844 49.9302799,19.96 L49.9302799,19.96 Z M11.1802799,5.22 L11.1802799,54.22 C11.1913713,54.6662193 11.0189895,55.0974652 10.7033673,55.4130874 C10.3877451,55.7287095 9.95649928,55.9010914 9.51027994,55.890504 L1.67027994,55.890504 C1.22489798,55.8982246 0.795331561,55.724921 0.480345266,55.4099347 C0.165358972,55.0949484 -0.00794461272,54.665382 0.000279939219,54.22 L0.000279939219,5.22 C-0.00794461272,4.77461804 0.165358972,4.34505162 0.480345266,4.03006533 C0.795331561,3.71507903 1.22489798,3.54177545 1.67027994,3.54950531 L9.51027994,3.54950531 C9.95296278,3.53909832 10.3810293,3.70877263 10.6960288,4.01999967 C11.0110283,4.33122671 11.1858475,4.75721795 11.1802799,5.2 L11.1802799,5.22 Z" id="形状"></path>
            <path d="M344.78028,8.17 C350.26028,11.98 351.78028,18.59 351.78028,22.94 L351.78028,38.84 C351.78028,43.2 350.28028,49.84 344.78028,53.62 C336.149931,59.0996438 325.130629,59.0996438 316.50028,53.62 C311.03028,49.8 309.50028,43.2 309.50028,38.84 L309.50028,22.96 C309.50028,18.61 311.00028,11.96 316.50028,8.19 C325.126319,2.69554953 336.154241,2.69554953 344.78028,8.19 L344.78028,8.17 Z M340.93028,38.47 C340.93028,35.11 340.93028,34.24 340.93028,31.02 C340.93028,27.8 340.93028,26.19 340.93028,22.83 C341.046734,19.6350983 339.589488,16.5860923 337.03028,14.67 C333.001679,12.1508404 327.888881,12.1508404 323.86028,14.67 C321.300725,16.5848823 319.84629,19.6358296 319.97028,22.83 C319.97028,26.19 319.97028,27.83 319.97028,31.02 C319.97028,34.21 319.97028,35.11 319.97028,38.47 C319.84803,41.6638119 321.302099,44.7139914 323.86028,46.63 C327.888881,49.1491596 333.001679,49.1491596 337.03028,46.63 C339.588123,44.7127881 341.045005,41.6645425 340.93028,38.47 L340.93028,38.47 Z M449.73028,46.63 C450.422272,46.6299782 450.984788,47.1880296 450.99028,47.88 L450.99028,54.76 C450.984788,55.4519704 450.422272,56.01 449.73028,56.01 L411.73028,56.01 C411.039924,56.01 410.48028,55.4503559 410.48028,54.76 L410.48028,5.96 C410.48028,5.26964406 411.039924,4.71 411.73028,4.71 L448.03028,4.71 C448.722272,4.71 449.284788,5.26802962 449.29028,5.96 L449.29028,12.87 C449.284788,13.5619704 448.722272,14.1200218 448.03028,14.12 L421.15028,14.12 L421.15028,24.77 L445.32028,24.77 C445.65353,24.7673339 445.974047,24.8978521 446.210635,25.1325621 C446.447223,25.3672722 446.580291,25.6867395 446.58028,26.02 L446.58028,32.84 C446.580291,33.1732605 446.447223,33.4927278 446.210635,33.7274379 C445.974047,33.9621479 445.65353,34.0926661 445.32028,34.09 L421.15028,34.09 L421.15028,46.65 L449.73028,46.63 Z M400.90028,4.68958168 C401.63394,4.74277404 402.217506,5.32634005 402.27028,6.06 L402.27028,54.64 C402.284486,55.0075177 402.144714,55.3642976 401.884646,55.624366 C401.624578,55.8844343 401.267798,56.024206 400.90028,56.01 L392.13028,56.01 C391.646215,56.0200534 391.199205,55.7518472 390.98028,55.32 L370.36028,23.13 L370.13028,23.13 L370.13028,54.64 C370.076906,55.3771903 369.487839,55.9619891 368.75028,56.01 L360.63028,56.01 C359.892721,55.9619891 359.303654,55.3771903 359.25028,54.64 L359.25028,6.06 C359.303654,5.32280974 359.892721,4.7380109 360.63028,4.68958168 L369.39028,4.68958168 C369.874995,4.67749033 370.323217,4.94642369 370.54028,5.38 L391.16028,37.09 L391.39028,37.09 L391.39028,6.09 C391.443654,5.35280974 392.032721,4.7680109 392.77028,4.72 L400.90028,4.68958168 Z" id="形状"></path>
            <path d="M575.28028,6.96 C574.119739,4.76762607 572.324905,2.97627733 570.13028,1.82 C567.92028,0.63 565.72028,0 559.65028,0 L497.73028,0 C491.66028,0 489.46028,0.63 487.24028,1.82 C485.045654,2.97627733 483.250821,4.76762607 482.09028,6.96 C480.91028,9.18 480.28028,11.38 480.28028,17.45 L480.28028,43.06 C480.28028,49.13 480.91028,51.33 482.09028,53.55 C483.253232,55.7431076 485.047172,57.5370475 487.24028,58.7 C489.46028,59.88 491.66028,60.52 497.73028,60.52 L559.67028,60.52 C565.74028,60.52 567.94028,59.88 570.15028,58.7 C572.343388,57.5370475 574.137327,55.7431076 575.30028,53.55 C576.49028,51.33 577.12028,49.13 577.12028,43.06 L577.12028,17.41 C577.10028,11.34 576.47028,9.14 575.28028,6.96 Z M526.79028,51.68 L520.79028,51.68 C520.048529,51.7602874 519.323754,51.4210312 518.91028,50.8 C518.65028,50.33 513.47028,39.2 512.12028,36.28 L511.65028,36.28 C508.80028,36.38 505.06028,36.28 505.06028,36.28 L505.06028,50.48 C505.06028,51.1372189 504.527499,51.67 503.87028,51.67 L497.06028,51.67 C496.744672,51.67 496.441991,51.5446254 496.218823,51.3214571 C495.995655,51.0982888 495.87028,50.7956076 495.87028,50.48 L495.87028,12.32 C495.856388,11.7930912 496.071612,11.2860383 496.46028,10.93 C498.05028,9.93 501.87028,8.24 509.65028,8.24 C517.43028,8.24 520.44028,9.57 523.00028,11.4 C524.994877,13.0332987 526.275292,15.3789334 526.57028,17.94 C526.82028,21.26 526.77028,24.79 526.77028,24.79 C526.77028,29.37 522.86028,32.34 521.86028,33.14 C521.46028,33.42 521.03028,33.69 520.57028,33.95 L528.00028,49.12 C528.315368,49.5980676 528.35652,50.2064013 528.108688,50.7225489 C527.860855,51.2386965 527.360382,51.5869645 526.79028,51.64 L526.79028,51.68 Z M561.38028,48.59 C558.79028,50.95 555.44028,52.31 549.16028,52.31 C543.41028,52.31 538.82028,51.26 535.42028,49.41 C534.77358,49.022736 534.390036,48.31318 534.42028,47.56 L534.70028,42.91 C534.780193,42.3753248 535.081814,41.899115 535.531045,41.5983583 C535.980277,41.2976016 536.535487,41.2001703 537.06028,41.33 C540.338027,42.520838 543.756671,43.2805366 547.23028,43.59 C552.78028,44.01 553.47028,43.54 554.83028,41.97 C556.19028,40.4 556.26028,35.57 554.68028,34.57 C553.68028,33.8 553.76028,34.09 548.25028,33.32 C541.97028,32.51 538.71028,31.6 536.86028,29.75 C534.86028,28.05 534.24028,25.75 534.24028,22.36 C534.18,20.818208 534.270429,19.2742139 534.51028,17.75 C535.05028,13.75 537.16028,11.52 540.83028,9.75 C543.205424,8.6666665 545.8018,8.1562971 548.41028,8.26 C553.119114,8.09493614 557.805683,8.97964566 562.13028,10.85 C562.802518,11.0586056 563.225446,11.7226019 563.13028,12.42 L562.72028,17.05 C562.642932,17.5839056 562.343407,18.0602016 561.895709,18.3612071 C561.44801,18.6622125 560.893898,18.7598516 560.37028,18.63 C558.24028,18.13 555.82028,17.17 551.73028,16.36 C549.91412,16.005126 548.04644,16.005126 546.23028,16.36 C544.342884,16.5817125 542.901536,18.1506138 542.84028,20.05 L542.84028,20.16 C542.61028,22.51 543.23028,24.36 545.53028,24.9 C548.31028,25.56 549.66028,25.39 554.31028,25.9 C558.96028,26.41 561.43028,27.9 562.74028,29.9 C564.27028,31.62 564.74028,35.01 564.74028,38.13 C564.73028,42.29 564.23028,45.89 561.38028,48.55 L561.38028,48.59 Z" id="形状"></path>
        </g>
        <path d="M550.60028,53.83 C550.60028,55.83 550.60028,57.41 549.46028,58.59 C548.32028,59.77 546.83028,60.72 542.96028,60.75 C542.83028,60.75 539.78028,60.75 539.20028,60.75 C538.62028,60.75 537.09028,60.88 537.08028,59.19 L537.08028,49.78 C537.08028,48.33 538.01028,48.18 539.20028,48.03 C540.779348,47.8393516 542.370359,47.7658175 543.96028,47.81 C545.79028,47.89 547.96028,48.32 549.14028,49.56 C550.174523,50.7330643 550.699788,52.2692832 550.60028,53.83 Z" id="路径" fill="#FFFFFF"></path>
    </g>
</svg>